<svg xmlns="http://www.w3.org/2000/svg" viewBox="0 0 100 100" width="100" height="100">
  <!-- Fiber Bundle — EmptyLatentImage -->
  <!-- A loose bundle of raw fibers -->
  <defs>
    <linearGradient id="fibers" x1="0" y1="0" x2="1" y2="1">
      <stop offset="0%" stop-color="#7a6a3a" stop-opacity="0.7"/>
      <stop offset="100%" stop-color="#aa9a5a" stop-opacity="0.5"/>
    </linearGradient>
  </defs>
  <!-- Main fiber strands -->
  <path d="M30 80 Q25 50 35 25 Q40 15 45 20" fill="none" stroke="#8a7a4a" stroke-width="2" opacity="0.7"/>
  <path d="M40 82 Q35 55 42 30 Q46 18 50 22" fill="none" stroke="#9a8a5a" stroke-width="2.5" opacity="0.8"/>
  <path d="M50 83 Q48 58 50 35 Q52 20 55 25" fill="none" stroke="#8a7a4a" stroke-width="2" opacity="0.75"/>
  <path d="M58 82 Q60 55 58 32 Q56 18 60 22" fill="none" stroke="#9a8a5a" stroke-width="2.5" opacity="0.8"/>
  <path d="M68 80 Q72 52 65 28 Q60 16 58 20" fill="none" stroke="#8a7a4a" stroke-width="2" opacity="0.7"/>
  <!-- Wispy ends -->
  <path d="M33 22 Q28 12 32 8" fill="none" stroke="#7a6a3a" stroke-width="1" opacity="0.4"/>
  <path d="M48 18 Q50 10 46 6" fill="none" stroke="#7a6a3a" stroke-width="1" opacity="0.4"/>
  <path d="M62 20 Q65 12 62 7" fill="none" stroke="#7a6a3a" stroke-width="1" opacity="0.4"/>
  <!-- Binding band at middle -->
  <ellipse cx="50" cy="55" rx="22" ry="5" fill="none" stroke="#aa9a5a" stroke-width="1.5" opacity="0.6"/>
  <!-- Loose ends at bottom -->
  <path d="M30 80 Q28 88 32 92" fill="none" stroke="#7a6a3a" stroke-width="1.5" opacity="0.5"/>
  <path d="M50 83 Q48 90 52 94" fill="none" stroke="#7a6a3a" stroke-width="1.5" opacity="0.5"/>
  <path d="M68 80 Q72 88 68 93" fill="none" stroke="#7a6a3a" stroke-width="1.5" opacity="0.5"/>
</svg>